<svg width="66" height="74" viewBox="0 0 66 74" fill="none" xmlns="http://www.w3.org/2000/svg">
<g clip-path="url(#clip0)">
<path d="M35.4439 7.15698C32.3181 18.0876 19.6568 23.9877 12 27.9773C28.6013 25.2074 32.667 25.614 51.0732 29.9292C47.8171 16.2659 62.7952 7.15698 66.0513 0C64.0976 1.9519 50.422 12.3621 35.4439 7.15698Z" fill="url(#paint0_linear)"/>
<path d="M39 30C30.2 35.6 18.3333 32.3333 13.5 30C21.1 42.8 15 54.6667 11 59C17.3333 56.6667 28.2 63.1 31 71.5C45.5 66 61 74 61 74C52 66 58.5 46 58.5 46C50.5 45.5 42 41.5 39 30Z" fill="url(#paint1_linear)"/>
<ellipse cx="18.0053" cy="18.061" rx="8.71074" ry="8.93409" fill="#F4465B"/>
<circle cx="20.4848" cy="14.538" r="3.65914" fill="#FE7E8E"/>
<ellipse cx="8.71074" cy="29.9341" rx="8.71074" ry="8.93409" fill="#F4465B"/>
<circle cx="10.8483" cy="27.1544" r="3.65914" fill="#FE7E8E"/>
</g>
<defs>
<linearGradient id="paint0_linear" x1="24.129" y1="19.5154" x2="39.0256" y2="29.9292" gradientUnits="userSpaceOnUse">
<stop stop-color="#0D681B"/>
<stop offset="1" stop-color="#109826"/>
</linearGradient>
<linearGradient id="paint1_linear" x1="22.5" y1="34.5" x2="49" y2="75" gradientUnits="userSpaceOnUse">
<stop offset="0.2" stop-color="#057216"/>
<stop offset="1" stop-color="#109826"/>
</linearGradient>
<clipPath id="clip0">
</clipPath>
</defs>
</svg>
